<svg width="954" height="586" viewBox="0 0 954 586" fill="none" xmlns="http://www.w3.org/2000/svg">
<path d="M269.676 198.375L269.676 229.719C269.228 237.331 272.721 252.555 290.273 252.555C307.826 252.555 821.474 252.555 1076.1 252.555" stroke="#AE99CD" stroke-width="0.603623"/>
<path d="M1.01073 300.912L247.731 300.912C253.999 300.763 266.806 303.599 267.88 316.136L267.88 417.78C267.731 431.959 274.686 461.84 303.702 467.93" stroke="#AE99CD" stroke-width="0.603623"/>
<path d="M521.766 93.5977C515.199 93.2991 502.064 88.9409 502.064 73.8959C502.064 58.8509 502.064 44.3432 502.064 38.97" stroke="#AE99CD" stroke-width="0.603623"/>
<path d="M771.618 145.098C757.588 144.799 729.528 133.903 729.528 92.7089" stroke="#AE99CD" stroke-width="0.603623"/>
<path d="M887.146 196.137L887.146 94.4935" stroke="#AE99CD" stroke-width="0.603623"/>
<path d="M2.80469 -12.9659L966.4 -12.966L1022.82 38.5273L1076.1 38.5273" stroke="#AE99CD" stroke-width="0.603623"/>
<path d="M0.118164 93.1562L1075.21 93.1562" stroke="#AE99CD" stroke-width="0.603623"/>
<path d="M82.0605 91.3637L82.0605 58.2289C82.2098 51.8109 86.8964 38.9749 104.449 38.9749C122.001 38.9749 687.89 38.9749 968.64 38.9749L1021.92 92.707" stroke="#AE99CD" stroke-width="0.603623"/>
<path d="M1.9082 145.539L1075.65 145.539" stroke="#AE99CD" stroke-width="0.603623"/>
<path d="M643.556 361.367L643.556 214.499C644.004 208.828 647.855 197.484 659.676 197.484C671.497 197.484 942.217 197.484 1076.1 197.484" stroke="#AE99CD" stroke-width="0.603623"/>
<path d="M1.9082 197.93L431.765 197.93" stroke="#AE99CD" stroke-width="0.603623"/>
<path d="M369.525 197.484C361.913 197.931 346.688 194.797 346.688 178.677C346.688 162.558 346.688 127.185 346.688 111.514C346.838 105.394 344.002 93.1551 331.464 93.1551" stroke="#AE99CD" stroke-width="0.603623"/>
<path d="M454.154 145.098C440.124 143.008 412.064 130.321 412.064 96.291C412.064 62.2607 412.064 22.1109 412.064 6.28975C412.363 -0.128249 410.452 -12.9642 400.422 -12.9642" stroke="#AE99CD" stroke-width="0.603623"/>
<path d="M2.3584 468.832L1077 468.832" stroke="#AE99CD" stroke-width="0.603623"/>
<path d="M85.6387 469.273L191.76 360.466L1075.65 360.466" stroke="#AE99CD" stroke-width="0.603623"/>
<path d="M1074.31 305.845L866.998 305.845C862.819 306.143 853.028 308.442 847.296 315.248C841.565 322.054 742.519 420.473 693.712 468.832" stroke="#AE99CD" stroke-width="0.603623"/>
<path d="M1076.1 413.757L1004.46 413.757L950.28 468.832" stroke="#AE99CD" stroke-width="0.603623"/>
<path d="M1074.76 519.431L833.862 519.431C823.712 518.685 803.414 521.401 803.414 538.237L803.414 574.059" stroke="#AE99CD" stroke-width="0.603623"/>
<path d="M1076.1 575.402L746.1 575.402L692.816 519.879L136.241 519.879L86.0908 467.49" stroke="#AE99CD" stroke-width="0.603623"/>
<path d="M1.46191 574.953L590.276 574.953L646.695 519.878" stroke="#AE99CD" stroke-width="0.603623"/>
<path d="M901.923 520.324C896.4 518.981 885.355 512.802 885.355 498.831C885.355 484.861 885.355 364.949 885.355 306.739" stroke="#AE99CD" stroke-width="0.603623"/>
<path d="M834.757 252.113L784.607 303.158C782.965 304.949 777.532 308.532 768.935 308.532C760.338 308.532 481.17 308.532 342.661 308.532C336.392 308.084 323.854 310.233 323.854 322.412C323.854 334.592 323.854 352.861 323.854 360.473" stroke="#AE99CD" stroke-width="0.603623"/>
<path d="M56.0899 468.832C49.6719 468.683 36.8359 462.922 36.8359 441.07C36.8359 419.219 36.8359 269.874 36.8359 197.933" stroke="#AE99CD" stroke-width="0.603623"/>
<path d="M83.4043 300.473L83.4043 197.934" stroke="#AE99CD" stroke-width="0.603623"/>
<circle cx="412.065" cy="38.967" r="9.99684" transform="rotate(-90 412.065 38.967)" fill="#64439B" stroke="#AE99CD" stroke-width="0.603623"/>
<circle cx="502.513" cy="38.967" r="9.99684" transform="rotate(-90 502.513 38.967)" fill="#64439B" stroke="#AE99CD" stroke-width="0.603623"/>
<circle cx="729.981" cy="38.9748" r="9.99684" transform="rotate(-90 729.981 38.9748)" fill="#573E80" stroke="#AE99CD" stroke-width="0.603623"/>
<circle cx="886.697" cy="92.7053" r="9.99684" transform="rotate(-90 886.697 92.7053)" fill="#573E80" stroke="#AE99CD" stroke-width="0.603623"/>
<circle cx="886.697" cy="197.483" r="9.99684" transform="rotate(-90 886.697 197.483)" fill="#573E80" stroke="#AE99CD" stroke-width="0.603623"/>
<circle cx="729.981" cy="92.7053" r="9.99684" transform="rotate(-90 729.981 92.7053)" fill="#3C2367" stroke="#AE99CD" stroke-width="0.603623"/>
<circle cx="886.697" cy="253.006" r="9.99684" transform="rotate(-90 886.697 253.006)" fill="#573E80" stroke="#AE99CD" stroke-width="0.603623"/>
<circle cx="886.697" cy="306.74" r="9.99684" transform="rotate(-90 886.697 306.74)" fill="#573E80" stroke="#AE99CD" stroke-width="0.603623"/>
<circle cx="644.01" cy="306.74" r="9.99684" transform="rotate(-90 644.01 306.74)" fill="#573E80" stroke="#AE99CD" stroke-width="0.603623"/>
<circle cx="644.01" cy="361.373" r="9.99684" transform="rotate(-90 644.01 361.373)" fill="#3C2367" stroke="#AE99CD" stroke-width="0.603623"/>
<circle cx="269.676" cy="360.479" r="9.99684" transform="rotate(-90 269.676 360.479)" fill="#3C2367" stroke="#AE99CD" stroke-width="0.603623"/>
<circle cx="216.838" cy="468.83" r="9.99684" transform="rotate(-90 216.838 468.83)" fill="#3C2367" stroke="#AE99CD" stroke-width="0.603623"/>
<circle cx="313.552" cy="468.83" r="9.99684" transform="rotate(-90 313.552 468.83)" fill="#3C2367" stroke="#AE99CD" stroke-width="0.603623"/>
<circle cx="646.692" cy="520.776" r="9.99684" transform="rotate(-90 646.692 520.776)" fill="#3C2367" stroke="#AE99CD" stroke-width="0.603623"/>
<circle cx="694.156" cy="520.776" r="9.99684" transform="rotate(-90 694.156 520.776)" fill="#3C2367" stroke="#AE99CD" stroke-width="0.603623"/>
<circle cx="694.156" cy="468.83" r="9.99684" transform="rotate(-90 694.156 468.83)" fill="#3C2367" stroke="#AE99CD" stroke-width="0.603623"/>
<circle cx="803.412" cy="468.83" r="9.99684" transform="rotate(-90 803.412 468.83)" fill="#3C2367" stroke="#AE99CD" stroke-width="0.603623"/>
<circle cx="901.92" cy="522.561" r="9.99684" transform="rotate(-90 901.92 522.561)" fill="#3C2367" stroke="#AE99CD" stroke-width="0.603623"/>
<circle cx="959.24" cy="522.561" r="9.99684" transform="rotate(-90 959.24 522.561)" fill="#3C2367" stroke="#AE99CD" stroke-width="0.603623"/>
<circle cx="803.412" cy="575.401" r="9.99684" transform="rotate(-90 803.412 575.401)" fill="#3C2367" stroke="#AE99CD" stroke-width="0.603623"/>
<path d="M545.05 521.676C529.826 520.183 499.378 507.974 499.378 471.078C499.378 434.182 499.378 294.571 499.378 256.959" stroke="#AE99CD" stroke-width="0.603623"/>
<circle cx="498.032" cy="253.006" r="9.99684" transform="rotate(-90 498.032 253.006)" fill="#573E80" stroke="#AE99CD" stroke-width="0.603623"/>
<circle cx="442.512" cy="197.483" r="9.99684" transform="rotate(-90 442.512 197.483)" fill="#64439B" stroke="#AE99CD" stroke-width="0.603623"/>
<circle cx="378.033" cy="197.483" r="9.99684" transform="rotate(-90 378.033 197.483)" fill="#64439B" stroke="#AE99CD" stroke-width="0.603623"/>
<circle cx="82.5086" cy="197.483" r="9.99684" transform="rotate(-90 82.5086 197.483)" fill="#64439B" stroke="#AE99CD" stroke-width="0.603623"/>
<circle cx="82.5086" cy="92.7053" r="9.99684" transform="rotate(-90 82.5086 92.7053)" fill="#64439B" stroke="#AE99CD" stroke-width="0.603623"/>
<circle cx="548.188" cy="520.776" r="9.99684" transform="rotate(-90 548.188 520.776)" fill="#3C2367" stroke="#AE99CD" stroke-width="0.603623"/>
</svg>
