<svg xmlns="http://www.w3.org/2000/svg" width="1512" height="2628" viewBox="0 0 1512 2628" fill="none">
  <g style="mix-blend-mode:screen" opacity="0.75" filter="url(#filter0_f_1272_1015)">
    <path d="M4522.75 2086.05C4294.13 3158.34 2121.01 1238.37 672.151 929.458C-776.711 620.548 -952.663 2039.68 -724.043 967.393C-495.422 -104.893 1066.32 -417.567 2515.18 -108.657C3964.04 200.252 4751.37 1013.77 4522.75 2086.05Z" fill="url(#paint0_radial_1272_1015)"/>
    <path d="M4522.75 2086.05C4294.13 3158.34 2121.01 1238.37 672.151 929.458C-776.711 620.548 -952.663 2039.68 -724.043 967.393C-495.422 -104.893 1066.32 -417.567 2515.18 -108.657C3964.04 200.252 4751.37 1013.77 4522.75 2086.05Z" fill="url(#paint1_radial_1272_1015)"/>
    <path d="M4522.75 2086.05C4294.13 3158.34 2121.01 1238.37 672.151 929.458C-776.711 620.548 -952.663 2039.68 -724.043 967.393C-495.422 -104.893 1066.32 -417.567 2515.18 -108.657C3964.04 200.252 4751.37 1013.77 4522.75 2086.05Z" fill="url(#paint2_radial_1272_1015)" fill-opacity="0.5"/>
    <path d="M4522.75 2086.05C4294.13 3158.34 2121.01 1238.37 672.151 929.458C-776.711 620.548 -952.663 2039.68 -724.043 967.393C-495.422 -104.893 1066.32 -417.567 2515.18 -108.657C3964.04 200.252 4751.37 1013.77 4522.75 2086.05Z" fill="url(#paint3_radial_1272_1015)" fill-opacity="0.5"/>
    <path d="M4522.75 2086.05C4294.13 3158.34 2121.01 1238.37 672.151 929.458C-776.711 620.548 -952.663 2039.68 -724.043 967.393C-495.422 -104.893 1066.32 -417.567 2515.18 -108.657C3964.04 200.252 4751.37 1013.77 4522.75 2086.05Z" fill="url(#paint4_radial_1272_1015)" fill-opacity="0.2"/>
    <path d="M4522.75 2086.05C4294.13 3158.34 2121.01 1238.37 672.151 929.458C-776.711 620.548 -952.663 2039.68 -724.043 967.393C-495.422 -104.893 1066.32 -417.567 2515.18 -108.657C3964.04 200.252 4751.37 1013.77 4522.75 2086.05Z" fill="url(#paint5_radial_1272_1015)"/>
  </g>
  <defs>
    <filter id="filter0_f_1272_1015" x="-1025.64" y="-440.372" width="5806.11" height="3067.46" filterUnits="userSpaceOnUse" color-interpolation-filters="sRGB">
      <feFlood flood-opacity="0" result="BackgroundImageFix"/>
      <feBlend mode="normal" in="SourceGraphic" in2="BackgroundImageFix" result="shape"/>
      <feGaussianBlur stdDeviation="109.305" result="effect1_foregroundBlur_1272_1015"/>
    </filter>
    <radialGradient id="paint0_radial_1272_1015" cx="0" cy="0" r="1" gradientUnits="userSpaceOnUse" gradientTransform="translate(2436.99 2127.82) rotate(-120.409) scale(2919.71 3132.43)">
      <stop offset="0.661091" stop-color="#0D0C1C" stop-opacity="0"/>
      <stop offset="1" stop-color="#281F3C"/>
    </radialGradient>
    <radialGradient id="paint1_radial_1272_1015" cx="0" cy="0" r="1" gradientUnits="userSpaceOnUse" gradientTransform="translate(2233.75 1617.92) rotate(-122.348) scale(2435.46 2562.63)">
      <stop offset="0.85671" stop-color="#0D0C1C" stop-opacity="0"/>
      <stop offset="1" stop-color="#C1AFC9"/>
    </radialGradient>
    <radialGradient id="paint2_radial_1272_1015" cx="0" cy="0" r="1" gradientUnits="userSpaceOnUse" gradientTransform="translate(3145.04 2403.84) rotate(-137.401) scale(5004.94 4494.93)">
      <stop stop-opacity="0"/>
      <stop offset="0.558888" stop-opacity="0.391893"/>
      <stop offset="0.762345" stop-color="#601EBA"/>
    </radialGradient>
    <radialGradient id="paint3_radial_1272_1015" cx="0" cy="0" r="1" gradientUnits="userSpaceOnUse" gradientTransform="translate(3145.04 2403.84) rotate(-137.401) scale(5004.94 4494.93)">
      <stop stop-opacity="0"/>
      <stop offset="0.5" stop-opacity="0.391893"/>
      <stop offset="1" stop-color="#280459"/>
    </radialGradient>
    <radialGradient id="paint4_radial_1272_1015" cx="0" cy="0" r="1" gradientUnits="userSpaceOnUse" gradientTransform="translate(3145.04 2403.84) rotate(-137.401) scale(5004.94 4494.93)">
      <stop stop-opacity="0"/>
      <stop offset="0.69395" stop-opacity="0.391893"/>
      <stop offset="0.762345" stop-color="#9682B4"/>
    </radialGradient>
    <radialGradient id="paint5_radial_1272_1015" cx="0" cy="0" r="1" gradientUnits="userSpaceOnUse" gradientTransform="translate(2227.85 1554.13) rotate(-111.13) scale(2481.71 2599.66)">
      <stop offset="0.971819" stop-color="#1D1830" stop-opacity="0"/>
      <stop offset="1" stop-color="#1D1830"/>
    </radialGradient>
  </defs>
</svg>