<svg width="1070" height="574" viewBox="0 0 1070 574" fill="none" xmlns="http://www.w3.org/2000/svg">
<g opacity="0.1">
<path d="M41.0002 -29.5L41.0001 550.5" stroke="url(#paint0_linear_1272_1017)"/>
<path d="M1029 -29.5L1029 550.5" stroke="url(#paint1_linear_1272_1017)"/>
<path d="M1069 -29L1069 163.337C1069 174.398 1060.03 183.366 1048.97 183.366V183.366C1037.91 183.366 1028.94 192.332 1028.94 203.394L1028.94 549C1028.94 560.046 1019.99 569 1008.94 569L717 569" stroke="url(#paint2_linear_1272_1017)"/>
</g>
<path opacity="0.1" d="M1.00001 -30L1.00002 166.887C1.00002 177.932 9.95445 186.887 21.0003 186.887V186.887C32.0461 186.887 41.0005 195.841 41.0005 206.887L41.0006 549C41.0006 560.046 49.9549 569 61.0006 569L381 569" stroke="url(#paint3_linear_1272_1017)"/>
<g filter="url(#filter0_f_1272_1017)">
<path d="M41 272L41.0001 549C41.0001 560.046 49.9544 569 61.0001 569L361 569" stroke="url(#paint4_linear_1272_1017)"/>
</g>
<path d="M41 271L41.0001 549C41.0001 560.046 49.9544 569 61.0001 569L361 569" stroke="url(#paint5_linear_1272_1017)"/>
<defs>
<filter id="filter0_f_1272_1017" x="36.5" y="268" width="328.5" height="305.5" filterUnits="userSpaceOnUse" color-interpolation-filters="sRGB">
<feFlood flood-opacity="0" result="BackgroundImageFix"/>
<feBlend mode="normal" in="SourceGraphic" in2="BackgroundImageFix" result="shape"/>
<feGaussianBlur stdDeviation="2" result="effect1_foregroundBlur_1272_1017"/>
</filter>
<linearGradient id="paint0_linear_1272_1017" x1="41.0002" y1="-342.075" x2="41.0001" y2="639.931" gradientUnits="userSpaceOnUse">
<stop stop-color="white"/>
<stop offset="0.223696" stop-color="white"/>
<stop offset="1" stop-color="white" stop-opacity="0"/>
</linearGradient>
<linearGradient id="paint1_linear_1272_1017" x1="1029" y1="-342.075" x2="1029" y2="639.931" gradientUnits="userSpaceOnUse">
<stop stop-color="white"/>
<stop offset="1" stop-color="white"/>
</linearGradient>
<linearGradient id="paint2_linear_1272_1017" x1="1020.5" y1="373.5" x2="814" y2="583.5" gradientUnits="userSpaceOnUse">
<stop stop-color="white"/>
<stop offset="1" stop-color="white" stop-opacity="0"/>
</linearGradient>
<linearGradient id="paint3_linear_1272_1017" x1="71.0026" y1="-346.646" x2="71.0025" y2="660.743" gradientUnits="userSpaceOnUse">
<stop stop-color="white"/>
<stop offset="0.68398" stop-color="white"/>
<stop offset="1" stop-color="white" stop-opacity="0"/>
</linearGradient>
<linearGradient id="paint4_linear_1272_1017" x1="356.3" y1="569" x2="114.559" y2="387.641" gradientUnits="userSpaceOnUse">
<stop stop-color="#FFA9D5" stop-opacity="0"/>
<stop offset="0.599457" stop-color="#FFA9D5"/>
<stop offset="1" stop-color="#FFA9D5" stop-opacity="0"/>
</linearGradient>
<linearGradient id="paint5_linear_1272_1017" x1="356.3" y1="569" x2="113.975" y2="387.812" gradientUnits="userSpaceOnUse">
<stop stop-color="#FFA9D5" stop-opacity="0"/>
<stop offset="0.599457" stop-color="#FFA9D5"/>
<stop offset="1" stop-color="#FFA9D5" stop-opacity="0"/>
</linearGradient>
</defs>
</svg>
